<mxfile host="app.diagrams.net" modified="2020-12-14T23:10:37.496Z" agent="5.0 (Windows)" etag="dfkiqIFiAIx6xfBiaAJj" version="14.0.1" type="github">
  <diagram id="vSzeH497d3pgI6Ws_rmx" name="Page-1">
    <mxGraphModel dx="1351" dy="802" grid="1" gridSize="10" guides="1" tooltips="1" connect="1" arrows="1" fold="1" page="1" pageScale="1" pageWidth="850" pageHeight="1100" math="0" shadow="0">
      <root>
        <mxCell id="0" />
        <mxCell id="1" parent="0" />
        <mxCell id="q8t7xmgrdyZi7GO-ZSdu-14" value="PostTable" style="shape=table;startSize=30;container=1;collapsible=1;childLayout=tableLayout;fixedRows=1;rowLines=0;fontStyle=1;align=center;resizeLast=1;" vertex="1" parent="1">
          <mxGeometry x="490" y="170" width="180" height="130" as="geometry" />
        </mxCell>
        <mxCell id="q8t7xmgrdyZi7GO-ZSdu-15" value="" style="shape=partialRectangle;collapsible=0;dropTarget=0;pointerEvents=0;fillColor=none;top=0;left=0;bottom=0;right=0;points=[[0,0.5],[1,0.5]];portConstraint=eastwest;" vertex="1" parent="q8t7xmgrdyZi7GO-ZSdu-14">
          <mxGeometry y="30" width="180" height="30" as="geometry" />
        </mxCell>
        <mxCell id="q8t7xmgrdyZi7GO-ZSdu-16" value="PK" style="shape=partialRectangle;connectable=0;fillColor=none;top=0;left=0;bottom=0;right=0;fontStyle=1;overflow=hidden;" vertex="1" parent="q8t7xmgrdyZi7GO-ZSdu-15">
          <mxGeometry width="60" height="30" as="geometry" />
        </mxCell>
        <mxCell id="q8t7xmgrdyZi7GO-ZSdu-17" value="PostID" style="shape=partialRectangle;connectable=0;fillColor=none;top=0;left=0;bottom=0;right=0;align=left;spacingLeft=6;fontStyle=5;overflow=hidden;" vertex="1" parent="q8t7xmgrdyZi7GO-ZSdu-15">
          <mxGeometry x="60" width="120" height="30" as="geometry" />
        </mxCell>
        <mxCell id="q8t7xmgrdyZi7GO-ZSdu-18" value="" style="shape=partialRectangle;collapsible=0;dropTarget=0;pointerEvents=0;fillColor=none;top=0;left=0;bottom=1;right=0;points=[[0,0.5],[1,0.5]];portConstraint=eastwest;" vertex="1" parent="q8t7xmgrdyZi7GO-ZSdu-14">
          <mxGeometry y="60" width="180" height="30" as="geometry" />
        </mxCell>
        <mxCell id="q8t7xmgrdyZi7GO-ZSdu-19" value="FK" style="shape=partialRectangle;connectable=0;fillColor=none;top=0;left=0;bottom=0;right=0;fontStyle=1;overflow=hidden;" vertex="1" parent="q8t7xmgrdyZi7GO-ZSdu-18">
          <mxGeometry width="60" height="30" as="geometry" />
        </mxCell>
        <mxCell id="q8t7xmgrdyZi7GO-ZSdu-20" value="UsernameID" style="shape=partialRectangle;connectable=0;fillColor=none;top=0;left=0;bottom=0;right=0;align=left;spacingLeft=6;fontStyle=5;overflow=hidden;" vertex="1" parent="q8t7xmgrdyZi7GO-ZSdu-18">
          <mxGeometry x="60" width="120" height="30" as="geometry" />
        </mxCell>
        <mxCell id="q8t7xmgrdyZi7GO-ZSdu-21" value="" style="shape=partialRectangle;collapsible=0;dropTarget=0;pointerEvents=0;fillColor=none;top=0;left=0;bottom=0;right=0;points=[[0,0.5],[1,0.5]];portConstraint=eastwest;" vertex="1" parent="q8t7xmgrdyZi7GO-ZSdu-14">
          <mxGeometry y="90" width="180" height="30" as="geometry" />
        </mxCell>
        <mxCell id="q8t7xmgrdyZi7GO-ZSdu-22" value="" style="shape=partialRectangle;connectable=0;fillColor=none;top=0;left=0;bottom=0;right=0;editable=1;overflow=hidden;" vertex="1" parent="q8t7xmgrdyZi7GO-ZSdu-21">
          <mxGeometry width="60" height="30" as="geometry" />
        </mxCell>
        <mxCell id="q8t7xmgrdyZi7GO-ZSdu-23" value="PostString" style="shape=partialRectangle;connectable=0;fillColor=none;top=0;left=0;bottom=0;right=0;align=left;spacingLeft=6;overflow=hidden;" vertex="1" parent="q8t7xmgrdyZi7GO-ZSdu-21">
          <mxGeometry x="60" width="120" height="30" as="geometry" />
        </mxCell>
        <mxCell id="q8t7xmgrdyZi7GO-ZSdu-53" value="Commenttable" style="shape=table;startSize=30;container=1;collapsible=1;childLayout=tableLayout;fixedRows=1;rowLines=0;fontStyle=1;align=center;resizeLast=1;" vertex="1" parent="1">
          <mxGeometry x="270" y="440" width="180" height="160" as="geometry" />
        </mxCell>
        <mxCell id="q8t7xmgrdyZi7GO-ZSdu-54" value="" style="shape=partialRectangle;collapsible=0;dropTarget=0;pointerEvents=0;fillColor=none;top=0;left=0;bottom=0;right=0;points=[[0,0.5],[1,0.5]];portConstraint=eastwest;" vertex="1" parent="q8t7xmgrdyZi7GO-ZSdu-53">
          <mxGeometry y="30" width="180" height="30" as="geometry" />
        </mxCell>
        <mxCell id="q8t7xmgrdyZi7GO-ZSdu-55" value="FK1" style="shape=partialRectangle;connectable=0;fillColor=none;top=0;left=0;bottom=0;right=0;fontStyle=1;overflow=hidden;" vertex="1" parent="q8t7xmgrdyZi7GO-ZSdu-54">
          <mxGeometry width="60" height="30" as="geometry" />
        </mxCell>
        <mxCell id="q8t7xmgrdyZi7GO-ZSdu-56" value="CommentID" style="shape=partialRectangle;connectable=0;fillColor=none;top=0;left=0;bottom=0;right=0;align=left;spacingLeft=6;fontStyle=5;overflow=hidden;" vertex="1" parent="q8t7xmgrdyZi7GO-ZSdu-54">
          <mxGeometry x="60" width="120" height="30" as="geometry" />
        </mxCell>
        <mxCell id="q8t7xmgrdyZi7GO-ZSdu-84" value="" style="shape=partialRectangle;collapsible=0;dropTarget=0;pointerEvents=0;fillColor=none;top=0;left=0;bottom=0;right=0;points=[[0,0.5],[1,0.5]];portConstraint=eastwest;" vertex="1" parent="q8t7xmgrdyZi7GO-ZSdu-53">
          <mxGeometry y="60" width="180" height="30" as="geometry" />
        </mxCell>
        <mxCell id="q8t7xmgrdyZi7GO-ZSdu-85" value="FK2" style="shape=partialRectangle;connectable=0;fillColor=none;top=0;left=0;bottom=0;right=0;fontStyle=1;overflow=hidden;" vertex="1" parent="q8t7xmgrdyZi7GO-ZSdu-84">
          <mxGeometry width="60" height="30" as="geometry" />
        </mxCell>
        <mxCell id="q8t7xmgrdyZi7GO-ZSdu-86" value="PostID" style="shape=partialRectangle;connectable=0;fillColor=none;top=0;left=0;bottom=0;right=0;align=left;spacingLeft=6;fontStyle=5;overflow=hidden;" vertex="1" parent="q8t7xmgrdyZi7GO-ZSdu-84">
          <mxGeometry x="60" width="120" height="30" as="geometry" />
        </mxCell>
        <mxCell id="q8t7xmgrdyZi7GO-ZSdu-57" value="" style="shape=partialRectangle;collapsible=0;dropTarget=0;pointerEvents=0;fillColor=none;top=0;left=0;bottom=1;right=0;points=[[0,0.5],[1,0.5]];portConstraint=eastwest;" vertex="1" parent="q8t7xmgrdyZi7GO-ZSdu-53">
          <mxGeometry y="90" width="180" height="30" as="geometry" />
        </mxCell>
        <mxCell id="q8t7xmgrdyZi7GO-ZSdu-58" value="FK3" style="shape=partialRectangle;connectable=0;fillColor=none;top=0;left=0;bottom=0;right=0;fontStyle=1;overflow=hidden;" vertex="1" parent="q8t7xmgrdyZi7GO-ZSdu-57">
          <mxGeometry width="60" height="30" as="geometry" />
        </mxCell>
        <mxCell id="q8t7xmgrdyZi7GO-ZSdu-59" value="UsernameID" style="shape=partialRectangle;connectable=0;fillColor=none;top=0;left=0;bottom=0;right=0;align=left;spacingLeft=6;fontStyle=5;overflow=hidden;" vertex="1" parent="q8t7xmgrdyZi7GO-ZSdu-57">
          <mxGeometry x="60" width="120" height="30" as="geometry" />
        </mxCell>
        <mxCell id="q8t7xmgrdyZi7GO-ZSdu-60" value="" style="shape=partialRectangle;collapsible=0;dropTarget=0;pointerEvents=0;fillColor=none;top=0;left=0;bottom=0;right=0;points=[[0,0.5],[1,0.5]];portConstraint=eastwest;" vertex="1" parent="q8t7xmgrdyZi7GO-ZSdu-53">
          <mxGeometry y="120" width="180" height="30" as="geometry" />
        </mxCell>
        <mxCell id="q8t7xmgrdyZi7GO-ZSdu-61" value="" style="shape=partialRectangle;connectable=0;fillColor=none;top=0;left=0;bottom=0;right=0;editable=1;overflow=hidden;" vertex="1" parent="q8t7xmgrdyZi7GO-ZSdu-60">
          <mxGeometry width="60" height="30" as="geometry" />
        </mxCell>
        <mxCell id="q8t7xmgrdyZi7GO-ZSdu-62" value="CommentString" style="shape=partialRectangle;connectable=0;fillColor=none;top=0;left=0;bottom=0;right=0;align=left;spacingLeft=6;overflow=hidden;" vertex="1" parent="q8t7xmgrdyZi7GO-ZSdu-60">
          <mxGeometry x="60" width="120" height="30" as="geometry" />
        </mxCell>
        <mxCell id="q8t7xmgrdyZi7GO-ZSdu-66" value="" style="edgeStyle=entityRelationEdgeStyle;fontSize=12;html=1;endArrow=ERoneToMany;entryX=0;entryY=0.5;entryDx=0;entryDy=0;exitX=1;exitY=0.5;exitDx=0;exitDy=0;" edge="1" parent="1" source="q8t7xmgrdyZi7GO-ZSdu-71" target="q8t7xmgrdyZi7GO-ZSdu-18">
          <mxGeometry width="100" height="100" relative="1" as="geometry">
            <mxPoint x="241" y="180" as="sourcePoint" />
            <mxPoint x="350" y="140" as="targetPoint" />
          </mxGeometry>
        </mxCell>
        <mxCell id="q8t7xmgrdyZi7GO-ZSdu-67" value="" style="edgeStyle=entityRelationEdgeStyle;fontSize=12;html=1;endArrow=ERoneToMany;exitX=1;exitY=0.5;exitDx=0;exitDy=0;" edge="1" parent="1" source="q8t7xmgrdyZi7GO-ZSdu-15" target="q8t7xmgrdyZi7GO-ZSdu-84">
          <mxGeometry width="100" height="100" relative="1" as="geometry">
            <mxPoint x="890" y="200" as="sourcePoint" />
            <mxPoint x="480" y="540" as="targetPoint" />
          </mxGeometry>
        </mxCell>
        <mxCell id="q8t7xmgrdyZi7GO-ZSdu-70" value="UserTable" style="shape=table;startSize=30;container=1;collapsible=1;childLayout=tableLayout;fixedRows=1;rowLines=0;fontStyle=1;align=center;resizeLast=1;" vertex="1" parent="1">
          <mxGeometry x="90" y="180" width="180" height="130" as="geometry" />
        </mxCell>
        <mxCell id="q8t7xmgrdyZi7GO-ZSdu-71" value="" style="shape=partialRectangle;collapsible=0;dropTarget=0;pointerEvents=0;fillColor=none;top=0;left=0;bottom=0;right=0;points=[[0,0.5],[1,0.5]];portConstraint=eastwest;" vertex="1" parent="q8t7xmgrdyZi7GO-ZSdu-70">
          <mxGeometry y="30" width="180" height="30" as="geometry" />
        </mxCell>
        <mxCell id="q8t7xmgrdyZi7GO-ZSdu-72" value="PK" style="shape=partialRectangle;connectable=0;fillColor=none;top=0;left=0;bottom=0;right=0;fontStyle=1;overflow=hidden;" vertex="1" parent="q8t7xmgrdyZi7GO-ZSdu-71">
          <mxGeometry width="60" height="30" as="geometry" />
        </mxCell>
        <mxCell id="q8t7xmgrdyZi7GO-ZSdu-73" value="UsernameID" style="shape=partialRectangle;connectable=0;fillColor=none;top=0;left=0;bottom=0;right=0;align=left;spacingLeft=6;fontStyle=5;overflow=hidden;" vertex="1" parent="q8t7xmgrdyZi7GO-ZSdu-71">
          <mxGeometry x="60" width="120" height="30" as="geometry" />
        </mxCell>
        <mxCell id="q8t7xmgrdyZi7GO-ZSdu-77" value="" style="shape=partialRectangle;collapsible=0;dropTarget=0;pointerEvents=0;fillColor=none;top=0;left=0;bottom=0;right=0;points=[[0,0.5],[1,0.5]];portConstraint=eastwest;" vertex="1" parent="q8t7xmgrdyZi7GO-ZSdu-70">
          <mxGeometry y="60" width="180" height="30" as="geometry" />
        </mxCell>
        <mxCell id="q8t7xmgrdyZi7GO-ZSdu-78" value="" style="shape=partialRectangle;connectable=0;fillColor=none;top=0;left=0;bottom=0;right=0;editable=1;overflow=hidden;" vertex="1" parent="q8t7xmgrdyZi7GO-ZSdu-77">
          <mxGeometry width="60" height="30" as="geometry" />
        </mxCell>
        <mxCell id="q8t7xmgrdyZi7GO-ZSdu-79" value="Password" style="shape=partialRectangle;connectable=0;fillColor=none;top=0;left=0;bottom=0;right=0;align=left;spacingLeft=6;overflow=hidden;" vertex="1" parent="q8t7xmgrdyZi7GO-ZSdu-77">
          <mxGeometry x="60" width="120" height="30" as="geometry" />
        </mxCell>
        <mxCell id="q8t7xmgrdyZi7GO-ZSdu-80" value="" style="shape=partialRectangle;collapsible=0;dropTarget=0;pointerEvents=0;fillColor=none;top=0;left=0;bottom=0;right=0;points=[[0,0.5],[1,0.5]];portConstraint=eastwest;" vertex="1" parent="q8t7xmgrdyZi7GO-ZSdu-70">
          <mxGeometry y="90" width="180" height="30" as="geometry" />
        </mxCell>
        <mxCell id="q8t7xmgrdyZi7GO-ZSdu-81" value="" style="shape=partialRectangle;connectable=0;fillColor=none;top=0;left=0;bottom=0;right=0;editable=1;overflow=hidden;" vertex="1" parent="q8t7xmgrdyZi7GO-ZSdu-80">
          <mxGeometry width="60" height="30" as="geometry" />
        </mxCell>
        <mxCell id="q8t7xmgrdyZi7GO-ZSdu-82" value="Email" style="shape=partialRectangle;connectable=0;fillColor=none;top=0;left=0;bottom=0;right=0;align=left;spacingLeft=6;overflow=hidden;" vertex="1" parent="q8t7xmgrdyZi7GO-ZSdu-80">
          <mxGeometry x="60" width="120" height="30" as="geometry" />
        </mxCell>
        <mxCell id="q8t7xmgrdyZi7GO-ZSdu-89" value="" style="edgeStyle=entityRelationEdgeStyle;fontSize=12;html=1;endArrow=ERoneToMany;entryX=0;entryY=0.5;entryDx=0;entryDy=0;exitX=0;exitY=0.5;exitDx=0;exitDy=0;" edge="1" parent="1" source="q8t7xmgrdyZi7GO-ZSdu-71" target="q8t7xmgrdyZi7GO-ZSdu-57">
          <mxGeometry width="100" height="100" relative="1" as="geometry">
            <mxPoint x="20" y="290" as="sourcePoint" />
            <mxPoint x="200" y="550" as="targetPoint" />
          </mxGeometry>
        </mxCell>
      </root>
    </mxGraphModel>
  </diagram>
</mxfile>
